# xmcd CD Database Entry
#
# Track frame offsets:
# 150
# 4525
# 26485
# 41215
# 59455
# 79552
# 106962
# 133835
# 159345
# 181425
# 200568
#
# Disc length: 2857 seconds
#
# Revision: 1
# Processed by: cddbd v1.4PL0 Copyright (c) Steve Scherf et al.
# Submitted via: tcd 2.0b
#
DISCID=8b0b270b
DTITLE=Astronaut Fuji - Unit 2: Modern Robotic Science
DYEAR=1900
DGENRE=
TTITLE0=Check Sum
TTITLE1=Robo-Rap
TTITLE2=Machine Land
TTITLE3=Green Angels
TTITLE4=Cancelation Vector
TTITLE5=Loser Dance
TTITLE6=Cerebral Vortex
TTITLE7=When My Heart Bleeps
TTITLE8=This Is My Dad's Head
TTITLE9=Astronaut Fuji (the song)
TTITLE10=Tender Buttons
EXTD=
EXTT0=
EXTT1=
EXTT2=
EXTT3=
EXTT4=
EXTT5=
EXTT6=
EXTT7=
EXTT8=
EXTT9=
EXTT10=
PLAYORDER=
